<?xml version="1.0" encoding="utf-8"?>
<!-- Generator: Adobe Illustrator 26.3.1, SVG Export Plug-In . SVG Version: 6.00 Build 0)  -->
<svg version="1.1" id="Layer_1" xmlns="http://www.w3.org/2000/svg" xmlns:xlink="http://www.w3.org/1999/xlink" x="0px" y="0px"
	 viewBox="0 0 279 233" style="enable-background:new 0 0 279 233;" xml:space="preserve">
<style type="text/css">
	.st0{fill:#FFFFFF;}
</style>
<g>
	<path class="st0" d="M156.4,16.9c1.9,0.3,3.7,0.8,5.4,1.6c2.3,1.2,4.3,2.9,5.8,5.1c0.7,1.1,1.6,1.8,2.8,2.3
		c6.3,2.8,12.1,6.3,17.1,11.1c5.2,5,8.9,10.9,11.1,17.8c0.4,1.2,1,2.1,1.9,2.9c6,5.5,9.9,12.2,11.6,20.1c0.7,3.1,1,6.2,0.8,9.3
		c-0.8,11.2-5.7,20-15.6,25.7c-1.2,0.7-2.4,1.2-3.7,1.8c-1,0.5-1.1,0.6-0.8,1.7c0.5,2,0.8,4.1,0.8,6.2c-0.1,5.3-2.1,9.9-5.6,13.9
		c-2.6,2.9-5.6,5-9.4,5.9c-7.1,1.5-13.1-0.5-18-6c-0.2-0.3-0.4-0.8-0.8-0.6c-0.4,0.1-0.2,0.6-0.2,1c0,6.1,0,12.2,0,18.3
		c0,2.7-1.9,4.7-4.6,4.9c-2.6,0.2-5-2-5.1-4.7c0-0.5,0-1,0-1.5c0-0.9-0.2-1.1-1.1-1.1c-0.9,0-1.8,0-2.6,0c-1.4,0-2-0.6-2-2
		c0-1.8-0.1-1.7-1.7-1.7c-1.5,0-1.5,0-1.5,1.5c0,0.2,0,0.5,0,0.7c0,0.9-0.5,1.4-1.4,1.4c-3.3,0-6.7,0-10,0c-0.7,0-1.1-0.4-1.3-1
		c-0.1-0.4-0.2-0.8-0.2-1.3c0-6.3,0-12.5,0-18.8c0-0.4,0-0.8,0.2-1.1c0.2-0.6,0.6-0.9,1.3-0.9c3.4,0,6.7,0,10.1,0
		c0.8,0,1.3,0.5,1.4,1.3c0.1,0.5,0.1,0.9,0.1,1.4c0,0.6,0.3,0.9,0.9,1c0.5,0,1.1,0.1,1.6,0c0.5-0.1,0.8-0.4,0.7-1
		c-0.1-0.5,0-1,0.1-1.5c0.1-0.7,0.6-1.1,1.3-1.2c1-0.1,2.1-0.2,3.1,0c0.8,0.1,1.2-0.3,1.2-1.2c0-1.9,0-3.9,0-5.8c0-1.3,0-2.5,0-3.8
		c0-0.2,0-0.4,0-0.6c-0.1-0.7-0.2-0.8-0.9-0.6c-1.5,0.5-3.1,1-4.6,1.4c-3.3,0.8-6.7,1.3-10.1,1.4c-4.5,0.2-8.9-0.3-13.2-1.5
		c-1-0.3-1.9-0.2-2.8,0.3c-3.1,1.5-6.4,2.3-9.9,2.1c-3.3-0.2-6.3-1.1-9.3-2.6c-5.3-2.7-9-6.9-11-12.4c-0.4-1-1-1.5-2-1.8
		c-5.2-1.6-9.7-4.3-13.4-8.2c-4.9-5.2-8-11.3-9.4-18.3c-0.6-3.1-0.7-6.3-0.6-9.4C62.8,63.5,64,59,66,54.7
		c2.6-5.7,6.1-10.8,10.5-15.3c7.2-7.4,15.6-12.7,25.4-16c4.1-1.4,8.3-2.2,12.6-2.8c3.2-0.4,6.4-0.9,9.6-1.2c1.8-0.2,3.6-0.3,5.4-0.4
		c2.8-0.1,5.5-0.2,8.3-0.1c2.3,0.1,4.7,0.2,7,0.4c0.7,0.1,1.4,0,2-0.4c1.9-1.1,3.9-1.8,6.1-2.1c0.1,0,0.1,0,0.2-0.1
		C154.1,16.9,155.2,16.9,156.4,16.9z M64.9,70.4c0,0.4,0,0.8,0,1.2c0,0.4,0.1,0.9,0.1,1.3c0.4,5.2,1.8,10.2,4.3,14.8
		c3.6,6.5,8.8,11.1,15.8,13.8c1.4,0.5,1.6,0.3,1.4-1.1c-0.2-1.9-0.2-3.9,0.1-5.8c0.3-2.7,1.1-5.3,2.2-7.8c0.4-0.8,0.2-1.5-0.4-2.2
		c-3.4-3.5-4.8-7.8-4.5-12.6c0.3-3.9,1.7-7.4,4.5-10.2c5.3-5.4,11.9-7.1,19.2-5.5c4.2,0.9,7.9,3,10.8,6.3c1.5,1.6,2.7,3.5,3.6,5.5
		c0.3,0.7,0.8,1.1,1.5,1.1c1,0.1,1.9,0.2,2.8,0.4c8.3,1.5,15.9,4.7,22.6,9.8c0.2,0.1,0.4,0.4,0.6,0.1c0.2-0.2,0.1-0.5-0.1-0.7
		c-0.3-0.3-0.6-0.3-0.9-0.5c-0.7-0.3-1.2-0.8-1.4-1.7c-0.1-0.5-0.1-1.1-0.1-1.6c0.1-1.7,0.1-3.5,0-5.2c-0.1-1.4-0.2-2.7,1.1-3.7
		c0.4-0.3,0.2-0.7-0.1-1c-1.3-1.6-1.9-3.5-1.9-5.5c0-1-0.2-1.1-1.1-0.8c-2.7,0.9-5.5,1-8.2,0.4c-7-1.6-11.6-8.4-10.8-15.1
		c0.4-3.7,2-6.8,4.8-9.2c2-1.7,4.3-2.7,6.8-3.2c0.9-0.2,1.2-0.5,1.4-1.4c0.4-2.7,1.5-5.2,3.2-7.4c0.1-0.1,0.2-0.3,0.3-0.4
		c0.2-0.4,0.2-0.7-0.3-0.8c-0.2,0-0.4-0.1-0.5-0.1c-1.7-0.1-3.5-0.2-5.2-0.2c-2.4,0-4.8,0.1-7.1,0.2c-2,0.1-4.1,0.2-6.1,0.4
		c-3.6,0.3-7.3,0.9-10.9,1.4c-7.3,1.1-14.2,3.5-20.5,7.3c-9.3,5.5-16.9,12.6-22.1,22.1C66.6,58.3,64.9,64.1,64.9,70.4z M88.8,97.9
		c0,1.3,0.1,2.6,0.4,3.9c2.1,9.4,8.5,15.7,18.6,16.8c5.7,0.6,10.6-1.4,14.3-5.8c2.8-3.3,4.2-7.2,3.8-11.6c-0.5-5.4-4.3-9.8-9.5-11.2
		c-5.1-1.4-10.2,0.9-12.4,5.5c-2.4,5.1,0.3,10.8,5.8,11.8c2.9,0.5,5.6-1.1,6.7-3.9c0.3-0.7,0.3-1.5,0.5-2.2c0.2-0.6,0.6-0.9,1.2-0.9
		c0.6,0,1,0.4,1.1,1c0,0.2,0,0.4,0,0.6c-0.1,1.1-0.4,2.1-0.8,3.1c-1.4,3-4.7,5-8.4,4.7c-2.6-0.2-4.8-1.2-6.5-3.1
		c-2.8-3.1-3.5-6.7-2.3-10.6c2-6.5,8.3-10.1,15.1-8.6c7.7,1.7,13.5,8.7,11.9,18c-0.7,4-2.5,7.4-5.4,10.2c-0.2,0.2-0.4,0.4-0.3,0.7
		c0.1,0.3,0.4,0.4,0.7,0.5c3.9,0.7,7.7,1.1,11.6,0.9c4.7-0.2,9.2-1.2,13.6-2.7c1.2-0.4,1.4-0.7,1.4-2c0-6.2,0.1-12.5-0.1-18.7
		c-0.1-2.9,0-5.9,0.1-8.9c0-1.6-0.6-2.7-1.8-3.7c-1.4-1.1-2.8-2.1-4.2-3c-9.2-5.5-19.1-8.4-29.9-7.2c-4.3,0.5-8.4,1.7-12.1,4
		C93.5,80.7,89.3,88.3,88.8,97.9z M210.4,85.2c0-1.9-0.2-4.3-0.7-6.7c-1.3-6.7-4.5-12.4-9.1-17.3c-4.7-5-10.5-8.3-17.2-9.9
		c-1-0.2-1.3-0.1-1.8,0.8c-1.5,2.7-3.6,4.8-6.4,6.1c-3.6,1.7-7.3,1.8-11.1,0.6c-0.8-0.2-1-0.1-1,0.6c-0.1,2.1-0.7,4.1-2,5.8
		c-0.3,0.4-0.3,0.8,0.1,1.2c0.7,0.6,1,1.5,1,2.4c0,1.1-0.1,2.2-0.1,3.2c-0.1,1.2,0.1,2.3,0.1,3.5c0,1.4-0.6,2.5-1.9,3
		c-0.5,0.2-0.7,0.6-0.8,1.1c0,0.3,0,0.6,0,0.9c0,0.4-0.1,0.9,0.3,1c0.3,0.1,0.5-0.4,0.7-0.7c4.8-6.9,11.5-9.9,19.8-8.6
		c9.3,1.4,14.2,10.3,13.3,17.5c-0.8,7.2-7,12.4-14.3,11.8c-4.7-0.4-8.5-3.7-9.6-8.3c-1.1-4.9,1.3-9.5,5.9-11
		c4.7-1.6,9.3,1.1,10.1,5.9c0.1,0.7,0.2,1.5-0.2,2.2c-0.2,0.4-0.6,0.6-1,0.5c-0.5,0-0.8-0.2-0.9-0.7c-0.1-0.3-0.2-0.7-0.2-1
		c-0.1-1.7-0.7-3.1-2.2-4.2c-2.3-1.6-5.8-0.9-7.6,1.2c-2.3,2.6-2.3,6.6-0.2,9.5c2.2,3,6.2,4.2,10,3c4.7-1.5,8-5.7,7.7-11.3
		c-0.3-4-2-7.4-5.1-9.9c-3.7-3.1-8-3.7-12.6-2.8c-5.8,1.2-9.8,4.6-12.3,9.9c-1.4,3-2,6.2-1.7,9.5c0.3,3,1.3,5.9,2.7,8.6
		c2.1,4,5,7.2,9,9.2c5.6,2.8,11.6,3.3,17.6,1.9c7.2-1.6,12.7-5.9,16.9-11.8C209.1,97,210.4,91.6,210.4,85.2z M153.7,33.8
		c-3.8,0.1-8.9-0.1-13.9,0.1c-3.6,0.1-6.5,1.6-8.8,4.3c-2.1,2.5-3,5.5-2.6,8.7c1,7,7.3,11,13.2,10.3c4.4-0.6,7.7-2.9,9.4-7
		c1.9-4.5,0.2-9.2-4-11.5c-3.6-2-7.9-0.8-9.7,2.7c-1.5,2.8-0.7,5.9,2,7.4c2.2,1.3,4.9,0.4,5.8-1.8c0.7-1.7,0.2-3.1-1.5-3.8
		c-0.4-0.2-0.9-0.3-1.3-0.5c-0.8-0.4-0.9-1.4-0.3-2c0.4-0.3,0.9-0.3,1.3-0.2c3,0.5,4.9,3.3,4.4,6.2c-0.6,3.3-3.7,5.5-7,5.1
		c-4.1-0.6-6.8-3.9-6.6-7.7c0.2-4.8,4.3-8.6,9-8.7c4.7-0.1,9.4,3.4,10.6,8c0.7,2.4,0.4,4.7-0.3,7c-0.4,1.2-0.3,1.2,0.9,1.2
		c0.1,0,0.3,0,0.4,0c0.9,0,1.1-0.2,0.8-1.1c-0.5-1.7-0.8-3.4-0.6-5.2c0.6-5.6,5.7-10.4,11.9-9.8c4.2,0.4,8,4.3,8.1,8.5
		c0.1,3.9-2.5,7.1-6.3,7.8c-4.2,0.8-7.9-2.7-7.3-7c0.3-2.2,2.4-4.1,4.6-4.3c0.9-0.1,1.5,0.5,1.4,1.4c-0.1,0.7-0.6,0.9-1.1,1
		c-0.8,0.2-1.5,0.5-2,1.1c-1.4,1.9,0,5.1,2.6,5.4c3.7,0.4,5.7-2.6,5.7-5.2c0-2.8-2.5-5.6-5.2-6.2c-3.8-0.8-8.1,1.6-9.4,5.4
		c-1.4,4-0.3,7.5,2.4,10.5c3,3.4,6.9,4.1,11.1,3.2c8.9-1.8,12.3-12.6,6.3-19.3c-2.5-2.8-5.7-3.8-9.2-3.8
		C164,33.7,159.4,33.8,153.7,33.8z M172.7,133c-0.6,0-1.1,0-1.7-0.1c-1.7-0.4-3.1-1.2-4.2-2.5c-0.5-0.6-0.4-1.1,0-1.6
		c0.4-0.5,0.9-0.5,1.5-0.1c0.3,0.2,0.6,0.5,1,0.8c1.3,0.9,2.7,1.3,4.2,1.1c3.9-0.7,6.3-5,5-8.8c-1.7-5-7.9-7.5-12.7-4.9
		c-5.5,2.9-7.7,9.9-4.9,15.6c3.2,6.6,11.5,9.8,18.6,7c5.4-2.1,9-6.1,10.7-11.7c1.1-3.5,1.2-7.1,0.2-10.6c-0.3-1-0.6-1.2-1.5-1
		c-3.2,0.7-6.4,0.9-9.6,0.6c-0.2,0-0.5-0.1-0.6,0.2c-0.1,0.2,0.1,0.4,0.2,0.6c3.1,3.8,3.3,8.1,0.5,12.1
		C177.8,131.8,175.5,133,172.7,133z M157.1,117.4C157.1,117.4,157.1,117.4,157.1,117.4c0-12.3,0-24.5,0-36.8c0-0.3,0-0.7,0-1
		c0-0.6-0.3-0.9-0.9-0.9c-1,0-2.1,0-3.1,0c-0.5,0-0.8,0.2-0.8,0.7c0,0.3-0.1,0.5-0.1,0.8c0,24.7,0,49.4,0,74.1
		c0,0.5,0.1,1.1,0.2,1.6c0.3,1.1,1.3,1.7,2.6,1.5c1.2-0.1,2-1,2.1-2.2c0-0.3,0-0.6,0-0.9C157.1,141.9,157.1,129.6,157.1,117.4z
		 M86.4,73.2c-0.1,3.4,1.1,6.2,2.9,8.7c1,1.4,1.3,1.4,2.3,0c1.6-2.4,3.6-4.5,5.8-6.3c2.2-1.7,4.7-3.1,7.2-4.3
		c0.3-0.1,0.7-0.2,0.7-0.5c0-0.4-0.4-0.5-0.6-0.7c-1.8-1.1-3.8-1.2-5.8-0.6c-0.4,0.1-0.9,0.4-1.3,0.5c-0.8,0.2-1.5-0.4-1.5-1.2
		c0-0.5,0.4-0.8,0.8-1c1.3-0.7,2.7-1,4.2-1.1c2.5-0.1,4.6,0.8,6.4,2.5c0.6,0.6,1.3,0.8,2.1,0.6c2.9-0.7,5.9-1,9-0.9
		c0.9,0,1.1-0.3,0.6-1.1c-1.4-2.5-3.2-4.6-5.6-6.2c-3.1-2.2-6.5-3.4-10.3-3.4c-1.9,0-3.8,0.3-5.7,0.8C89.7,61,86.4,67.7,86.4,73.2z
		 M154.5,31.4c4.1,0,8.1,0,12.2,0c1,0,1.3-0.4,1.1-1.4c-0.2-0.8-0.4-1.5-0.7-2.2c-2.4-6.4-9-9.3-14.6-8.4c-5.6,0.9-9.9,5-11.1,10.6
		c-0.2,1.1,0,1.3,1.1,1.3C146.5,31.4,150.5,31.4,154.5,31.4z M149.7,141c0-1.4,0-2.8,0-4.2c0-1.3,0-2.7,0-4c0-0.7-0.3-1-1-1.1
		c-0.4,0-0.8,0-1.2,0c-0.6,0-0.9,0.3-0.9,0.8c0,0.4-0.1,0.8-0.1,1.3c-0.1,1-0.6,1.5-1.6,1.5c-1.7,0-3.3,0-5,0
		c-0.8,0-1.3-0.4-1.5-1.1c-0.1-0.5-0.2-0.9-0.1-1.4c0.1-0.9-0.1-1.1-1-1.1c-1.8,0-3.6,0-5.4,0c-1.2,0-1.4,0.2-1.4,1.4
		c0,5,0,9.9,0,14.9c0,0.4,0,0.8,0,1.2c0,0.5,0.3,0.9,0.9,0.9c2.1,0,4.2,0,6.4,0c0.4,0,0.6-0.2,0.7-0.6c0.1-0.5,0.1-1.1,0.1-1.6
		c0.1-0.9,0.6-1.4,1.5-1.5c1.6-0.1,3.3-0.2,4.9,0c1.4,0.1,1.7,0.5,1.8,1.9c0,1.7,0.2,1.8,1.8,1.8c1.1,0,1.4-0.2,1.4-1.3
		C149.7,146.2,149.7,143.6,149.7,141z M183,48.1c0,0.5,0.2,0.7,0.9,0.9c3.7,0.9,7.2,2.4,10.5,4.3c0.2,0.1,0.5,0.4,0.7,0.1
		c0.2-0.2,0.1-0.5,0-0.7c-1.9-4.7-4.5-8.9-8-12.5c-3.6-3.8-7.8-6.9-12.4-9.4c-1.3-0.7-2.6-1.3-3.9-2c-0.6-0.3-0.8-0.1-0.7,0.5
		c0,0.3,0.2,0.7,0.2,1c0.2,1,0.3,1.1,1.3,1.3c5.7,1.2,9.4,4.5,11.1,10.1C183.3,43.8,183.4,45.9,183,48.1z M160.6,59.8
		c0-3.3-2.8-6-6-6c-3.3,0-6,2.7-6,6c0,3.2,2.8,6,6,6C157.8,65.8,160.6,63.1,160.6,59.8z M159.6,103.3c0,0.3,0,0.4,0,0.6
		c0,1.8,0,3.5-0.1,5.3c-0.1,3,0,6,0,9c0,0.2-0.1,0.5,0.2,0.6c0.2,0.1,0.4-0.1,0.5-0.3c2-2.7,4.6-4.3,7.9-5c0.2,0,0.4-0.1,0.5-0.3
		c0-0.2-0.1-0.4-0.3-0.5c-3.2-2.1-5.8-4.8-7.7-8.2C160.3,104.1,160.1,103.7,159.6,103.3z M154.6,76.2
		C154.6,76.2,154.6,76.2,154.6,76.2c1.3,0,2.6,0,4,0c0.2,0,0.4,0,0.5,0c0.3,0,0.5-0.2,0.5-0.5c0-0.3-0.2-0.4-0.5-0.5
		c-0.1,0-0.3,0-0.4,0c-2.7,0-5.5,0-8.2,0c-0.2,0-0.4,0-0.5,0.1c-0.2,0.1-0.4,0.2-0.4,0.4c0,0.3,0.2,0.4,0.4,0.5c0.2,0,0.4,0,0.6,0
		C151.9,76.2,153.3,76.2,154.6,76.2z M157,69.3c0.7,0,1.4,0,2.1,0c0.3,0,0.6-0.2,0.5-0.5c0-0.3-0.3-0.4-0.6-0.4c-0.1,0-0.2,0-0.4,0
		c-2.7,0-5.4,0-8.1,0c-0.2,0-0.4,0-0.5,0c-0.2,0-0.3,0.1-0.3,0.3c0,0.2,0,0.4,0.2,0.5c0.2,0.1,0.3,0.1,0.5,0.1
		C152.6,69.2,154.8,69.3,157,69.3z M154.7,71.8c-1.5,0-2.9,0-4.4,0c-0.3,0-0.6,0-0.6,0.4c0,0.3,0.3,0.5,0.6,0.5c0.4,0,0.9,0,1.3,0
		c2.4,0,4.8,0.1,7.2,0.1c0.4,0,0.8,0,0.8-0.5c0-0.5-0.4-0.5-0.8-0.5C157.4,71.8,156,71.8,154.7,71.8z"/>
	<path class="st0" d="M20.3,194.9c0.9-0.7,1.6-0.7,2.5,0.2c2.9,2.9,5.8,5.8,8.7,8.7c1.3,1.3,1.4,1.3,2.7,0c2.9-2.8,5.7-5.7,8.6-8.5
		c0.3-0.3,0.7-0.6,1.1-0.8c0.7-0.2,1.2,0,1.4,0.7c0.1,0.3,0.1,0.5,0.1,0.8c0,8.3,0,16.6,0,24.9c0,1.6-0.2,1.8-1.8,1.8
		c-5.6,0-11.2,0-16.9,0c-0.5,0-0.9,0-1.3-0.2c-0.3-0.1-0.5-0.3-0.5-0.7c0-0.3,0.2-0.6,0.5-0.7c0.3-0.1,0.6-0.1,1-0.1
		c5.3,0,10.5,0,15.8,0c1.3,0,1.5-0.2,1.5-1.5c0-6.9,0-13.8,0-20.8c0-0.4,0.1-0.9-0.3-1c-0.4-0.2-0.6,0.3-0.9,0.5
		c-2.8,2.6-5.5,5.4-8.2,8.1c-0.2,0.2-0.3,0.3-0.5,0.5c-0.7,0.6-1.1,0.6-1.7,0c-1.1-1-2.1-2.1-3.2-3.2c-1.9-1.9-3.7-3.7-5.6-5.6
		c-0.2-0.2-0.4-0.4-0.7-0.2c-0.3,0.1-0.3,0.4-0.3,0.6c0,6.6,0,13.2,0,19.8c0,1,0,2,0,3.1c0,0.5,0,0.9-0.5,1.2
		c-0.5,0.2-1,0.1-1.4-0.3C20.3,213,20.3,204,20.3,194.9z"/>
	<path class="st0" d="M64.7,208.5c0-4.2,0-8.4,0-12.6c0-1,0.2-1.3,0.8-1.5c0.6-0.2,1.2,0,1.6,0.8c2,3.1,3.9,6.2,5.9,9.4
		c2.7,4.4,5.4,8.7,8.2,13.1c0.1,0.2,0.3,0.6,0.6,0.5c0.4-0.1,0.3-0.4,0.3-0.7c0-7.2,0-14.4,0-21.6c0-0.2,0-0.5,0-0.7
		c0.1-0.5,0.4-0.7,0.9-0.7c0.5,0,0.8,0.3,0.8,0.7c0,0.2,0,0.5,0,0.7c0,8.1,0,16.2,0,24.3c0,0.3,0,0.7,0,1c0,0.4,0,0.9-0.4,1.1
		c-0.5,0.3-0.9,0.2-1.4-0.1c-0.3-0.2-0.5-0.5-0.7-0.9c-4.6-7.4-9.2-14.7-13.8-22.1c-0.1-0.2-0.2-0.5-0.6-0.4
		c-0.3,0.1-0.3,0.4-0.3,0.7c0,7.2,0,14.4,0,21.6c0,1.1-0.4,1.5-1.3,1.4c-0.5-0.1-0.8-0.4-0.8-0.9c0-1,0-2,0-3
		C64.7,215.2,64.7,211.9,64.7,208.5z"/>
	<path class="st0" d="M92.6,208.5c0-4.1,0-8.2,0-12.3c0-0.3,0-0.5,0-0.8c0-0.6,0.4-1,1-1c3.6-0.1,7.2-0.1,10.6,1.3
		c5.1,2.1,8.2,6.7,8.2,12.2c0,2.5-0.3,5-1.5,7.3c-2,3.9-5.4,6-9.5,7c-2.5,0.6-5,0.5-7.5,0.5c-1,0-1.3-0.4-1.4-1.5
		C92.5,216.9,92.6,212.7,92.6,208.5C92.6,208.5,92.6,208.5,92.6,208.5z M94.5,208.5c0,3.7,0,7.3,0,11c0,1.3,0.2,1.5,1.5,1.5
		c1.3,0,2.7-0.2,4-0.4c3.8-0.6,7-2.3,8.9-5.8c1.6-2.9,1.9-5.9,1.3-9.1c-0.5-2.6-1.6-4.8-3.7-6.4c-3.3-2.7-7.2-3.3-11.3-3.2
		c-0.5,0-0.7,0.3-0.8,0.8c0,0.3,0,0.5,0,0.8C94.5,201.2,94.5,204.9,94.5,208.5z"/>
	<path class="st0" d="M187.1,208.8c-0.1,2,0.1,4.2,0.6,6.4c0.8,3.4,3,5.5,6.5,6.1c2.2,0.4,4.4,0.2,6.5-0.4c1-0.3,2-0.7,2.8-1.5
		c0.1-0.1,0.2-0.2,0.3-0.2c0.5-0.3,1-0.3,1.3,0.1c0.3,0.4,0.3,0.8-0.2,1.2c-1.2,1.1-2.6,1.9-4.2,2.2c-2.8,0.5-5.7,0.7-8.5-0.1
		c-3-0.9-5-2.8-5.8-5.8c-1.6-5.5-1.6-11,0-16.5c1-3.3,3.3-5.3,6.7-6c2.7-0.5,5.4-0.6,8,0.2c1.8,0.6,3.4,1.5,4.6,3
		c0.6,0.8,0.6,1.3-0.2,2c-3.5,2.9-7,5.8-10.5,8.7c-0.5,0.4-1.1,0.6-1.7,0.6c-0.3,0-0.6,0-0.8-0.4c-0.1-0.4,0.1-0.6,0.3-0.8
		c2.5-2.1,5-4.2,7.6-6.3c0.9-0.8,1.8-1.5,2.7-2.3c0.8-0.7,0.7-1.2-0.1-1.8c-2.3-1.5-4.8-1.9-7.4-1.7c-1.2,0.1-2.3,0.3-3.5,0.7
		c-2.5,1-3.7,3-4.4,5.5C187.1,204,187,206.2,187.1,208.8z"/>
	<path class="st0" d="M159.8,208.4c0-4.3,0-8.6,0-12.9c0-0.8,0.3-1.1,0.9-1.1c0.6,0,1,0.3,1,1.1c-0.1,2.7,0.1,5.4,0,8.2
		c-0.1,0.8,0,1.6,0.1,2.4c0.1,0.4,0.3,0.7,0.7,0.7c0.5,0,1,0,1.5,0c3.5,0,7.1,0,10.6,0c1.1,0,1.3-0.2,1.3-1.3c0-3.2,0-6.3,0-9.5
		c0-0.2,0-0.4,0-0.6c0-0.5,0.2-0.9,0.8-0.9c0.5,0,0.8,0.2,0.9,0.8c0,0.3,0.1,0.7,0.1,1c0,8.3,0,16.6,0,24.9c0,0.3,0,0.6-0.1,0.9
		c-0.2,0.4-0.5,0.5-0.9,0.5c-0.4,0-0.7-0.3-0.7-0.7c0-0.2,0-0.4,0-0.7c0-3.8,0-7.5,0-11.3c0-1.3-0.2-1.5-1.5-1.5
		c-3.8,0-7.6,0-11.4,0c-1.1,0-1.3,0.1-1.3,1.3c0,3.6,0,7.2,0,10.9c0,0.4,0,0.9-0.1,1.3c0,0.5-0.3,0.7-0.8,0.8c-0.5,0-0.9-0.1-1-0.7
		c-0.1-0.3-0.1-0.5-0.1-0.8C159.8,216.9,159.8,212.7,159.8,208.4C159.8,208.4,159.8,208.4,159.8,208.4z"/>
	<path class="st0" d="M134.4,208.7c-0.1,2.5,0.1,5,1,7.5c1,3,3.2,4.6,6.2,5.1c1.9,0.3,3.8,0.2,5.6-0.1c1.4-0.3,2.7-0.9,3.8-1.9
		c0.5-0.5,1-0.5,1.4,0c0.3,0.5,0.2,0.9-0.2,1.2c-1.1,1-2.3,1.7-3.7,2.1c-2.6,0.7-5.3,0.8-8,0.2c-3.8-0.7-6.1-3-7.1-6.7
		c-1.3-5.1-1.3-10.2,0-15.3c1-3.8,3.4-6,7.2-6.7c2.6-0.4,5.2-0.6,7.7,0.2c1.4,0.4,2.7,1,3.8,2.1c0.5,0.5,0.6,1,0.2,1.4
		c-0.4,0.4-0.8,0.4-1.4-0.1c-2.3-2-5.1-2.5-8-2.2c-0.7,0.1-1.4,0.2-2.1,0.3c-2.7,0.5-4.4,2.1-5.4,4.6c-0.7,1.8-1,3.7-1.1,5.7
		C134.4,207,134.4,207.8,134.4,208.7z"/>
	<path class="st0" d="M223.2,223c-1.9,0.1-3.8,0-5.6-0.8c-2.3-1-4-2.7-4.7-5.1c-1.4-4.6-1.7-9.2-0.8-13.9c0.2-1.1,0.4-2.2,0.8-3.3
		c1-2.7,2.8-4.6,5.6-5.4c3.3-0.9,6.7-1,10,0.2c0.9,0.3,1.8,0.8,2.5,1.5c0.2,0.2,0.4,0.4,0.6,0.7c0.2,0.3,0.1,0.6-0.1,0.9
		c-0.2,0.3-0.5,0.4-0.9,0.3c-0.2-0.1-0.4-0.2-0.5-0.3c-3.3-2.5-6.8-2.8-10.7-1.7c-2.7,0.8-4.3,2.4-5,5.1c-1.3,4.9-1.4,9.7,0,14.6
		c0.9,3.1,2.8,4.9,5.9,5.4c2.4,0.4,4.8,0.4,7.2-0.4c0.9-0.3,1.7-0.7,2.4-1.3c0.1-0.1,0.2-0.2,0.3-0.3c0.4-0.3,0.9-0.4,1.3,0
		c0.4,0.4,0.3,0.8-0.1,1.2c-0.9,0.9-2,1.6-3.2,2C226.6,223,224.9,223.1,223.2,223z"/>
	<path class="st0" d="M256.2,194.4c0.4,0,0.7,0,0.9,0.4c0.2,0.4-0.1,0.6-0.3,0.8c-3.6,3.5-7.1,7-10.7,10.6c-0.3,0.3-0.6,0.6-0.9,0.9
		c-0.4,0.4-0.4,0.8,0,1.2c0.5,0.5,1,1,1.4,1.5c3.6,3.6,7.2,7.1,10.8,10.6c0.3,0.3,0.6,0.6,0.9,0.9c0.3,0.2,0.5,0.5,0.3,0.8
		c-0.2,0.4-0.5,0.4-0.9,0.4c-0.6,0-1.2-0.3-1.6-0.8c-0.6-0.6-1.2-1.2-1.9-1.8c-3.7-3.7-7.4-7.3-11.1-11c0,0-0.1-0.1-0.1-0.1
		c-1-1-1-1.3,0-2.3c3.6-3.6,7.2-7.2,10.8-10.7c0.3-0.3,0.6-0.6,1-0.9C255.3,194.5,255.8,194.4,256.2,194.4z"/>
	<path class="st0" d="M239,208.6c0-4.1,0-8.2,0-12.3c0-0.4,0-0.7,0.1-1.1c0.1-0.5,0.4-0.8,0.9-0.8c0.5,0,0.8,0.2,0.9,0.7
		c0,0.3,0.1,0.5,0.1,0.8c0,8.4,0,16.9,0,25.3c0,0.8-0.3,1.2-0.9,1.3c-0.6,0-1-0.3-1-0.9c0-0.2,0-0.5,0-0.7
		C239,216.8,239,212.7,239,208.6z"/>
	<path class="st0" d="M56.1,208.5c0,4.3,0,8.6,0,12.9c0,0.8-0.4,1.2-1.1,1.1c-0.5,0-0.7-0.3-0.8-0.8c0-0.2,0-0.4,0-0.6
		c0-8.4,0-16.8,0-25.1c0-0.3,0-0.5,0-0.8c0.1-0.5,0.4-0.8,0.9-0.8c0.5,0,0.9,0.2,0.9,0.8c0,0.3,0,0.5,0,0.8
		C56.1,200.1,56.1,204.3,56.1,208.5z"/>
	<path class="st0" d="M142.4,137.4c0.8,0,1.7,0,2.5,0c1,0,1.5,0.5,1.6,1.5c0,1.3,0,2.7,0,4c0,0.9-0.5,1.5-1.4,1.5
		c-1.8,0-3.5,0-5.3,0c-0.8,0-1.3-0.5-1.4-1.3c-0.1-1.5-0.1-2.9,0-4.4c0.1-0.8,0.5-1.3,1.4-1.3C140.7,137.4,141.6,137.4,142.4,137.4
		C142.4,137.4,142.4,137.4,142.4,137.4z M142.4,139.8C142.4,139.8,142.4,139.8,142.4,139.8c-0.3,0-0.6,0-0.8,0
		c-0.5,0.1-0.8,0.6-0.8,1.4c0,0.6,0.3,0.9,0.9,0.8c0.6-0.1,1.2-0.1,1.8-0.1c0.3,0,0.5-0.1,0.6-0.3c0.5-0.9,0-1.8-1-1.8
		C142.8,139.8,142.6,139.8,142.4,139.8z"/>
	<path class="st0" d="M136,141.4c0,1,0,2,0,2.9c0,0.7-0.3,0.9-1,1c-1.8,0-1.9-0.1-1.9-1.9c0-1.6,0-3.3,0-4.9c0-0.9,0.3-1.1,1.1-1.1
		c1.8,0,1.7,0,1.7,1.8C136,139.9,136,140.7,136,141.4z"/>
</g>
</svg>
